# AST/ASF file generated using VICON BodyLanguage
# -----------------------------------------------
:version 1.10
:name VICON
:units
  mass 1.0
  length 0.45
  angle deg
:documentation
   .ast/.asf automatically generated from VICON data using
   VICON BodyBuilder and BodyLanguage model FoxedUp or BRILLIANT.MOD
:root
   order TX TY TZ RX RY RZ
   axis XYZ
   position 0 0 0  
   orientation 0 0 0 
:bonedata
  begin
     id 1 
     name lhipjoint
     direction 0.635376 -0.686425 0.353719 
     length 2.47244 
     axis 0 0 0  XYZ
  end
  begin
     id 2 
     name lfemur
     direction 0.34202 -0.939693 0  
     length 7.25268  
     axis 0 0 20  XYZ
    dof rx ry rz
    limits (-160.0 20.0)
           (-70.0 70.0)
           (-60.0 70.0)
  end
  begin
     id 3 
     name ltibia
     direction 0.34202 -0.939693 0   
     length 7.6767   
     axis 0 0 20   XYZ
    dof rx
    limits (-10.0 170.0)
  end
  begin
     id 4 
     name lfoot
     direction 0.0803374 -0.220725 0.972022   
     length 2.22945   
     axis -90 7.62852e-016 20   XYZ
    dof rx rz
    limits (-45.0 90.0)
           (-70.0 20.0)
  end
  begin
     id 5 
     name ltoes
     direction 1.53579e-011 -4.21994e-011 1   
     length 1.11848   
     axis -90 7.62852e-016 20   XYZ
    dof rx
    limits (-90.0 20.0)
  end
  begin
     id 6 
     name rhipjoint
     direction -0.664428 -0.664335 0.342336   
     length 2.55466  
     axis 0 0 0  XYZ 
  end
  begin
     id 7 
     name rfemur
     direction -0.34202 -0.939693 0   
     length 6.83172   
     axis 0 0 -20   XYZ
    dof rx ry rz
    limits (-160.0 20.0)
           (-70.0 70.0)
           (-70.0 60.0)
  end
  begin
     id 8 
     name rtibia
     direction -0.34202 -0.939693 0   
     length 7.62692   
     axis 0 0 -20   XYZ
    dof rx
    limits (-10.0 170.0)
 end
 begin
     id 9 
     name rfoot
     direction -0.0949276 -0.260811 0.960711   
     length 2.19684  
     axis -90 -7.62852e-016 -20   XYZ
    dof rx rz
    limits (-45.0 90.0)
           (-20.0 70.0)
  end
  begin
     id 10 
     name rtoes
     direction -1.53543e-011 -4.2183e-011 1   
     length 1.09848   
     axis -90 -7.62852e-016 -20   XYZ
    dof rx
    limits (-90.0 20.0)
  end
  begin
     id 11 
     name lowerback
     direction 0.0118782 0.999815 -0.0151555   
     length 2.15772   
     axis 0 0 0   XYZ
    dof rx ry rz
    limits (-20.0 45.0)
           (-30.0 30.0)
           (-30.0 30.0)
  end
  begin
     id 12 
     name upperback
     direction 0.00130825 0.999065 0.0432113   
     length 2.14863   
     axis 0 0 0   XYZ
    dof rx ry rz
    limits (-20.0 45.0)
           (-30.0 30.0)
           (-30.0 30.0)
  end
  begin
     id 13 
     name thorax
     direction -0.00347005 0.998773 0.0494011   
     length 2.14936   
     axis 0 0 0   XYZ
    dof rx ry rz
    limits (-20.0 45.0)
           (-30.0 30.0)
           (-30.0 30.0)
  end
  begin
     id 14 
     name lowerneck
     direction -0.0262159 0.99424 0.103921   
     length 1.69373   
     axis 0 0 0   XYZ
    dof rx ry rz
    limits (-20.0 45.0)
           (-30.0 30.0)
           (-30.0 30.0)
  end
  begin
     id 15 
     name upperneck
     direction 0.0353511 0.977394 -0.20845   
     length 1.70857   
     axis 0 0 0   XYZ
    dof rx ry rz
    limits (-20.0 45.0)
           (-30.0 30.0)
           (-30.0 30.0)
  end
  begin
     id 16
     name head
     direction 0.0139214 0.996594 -0.0812836  
     length 1.72777  
     axis 0 0 0   XYZ
    dof rx ry rz
    limits (-20.0 45.0)
           (-30.0 30.0)
           (-30.0 30.0)
  end
  begin
     id 17 
     name lclavicle
     direction 0.841247 0.537205 -0.0609508  
     length 3.55371  
     axis 0 0 0   XYZ
    dof ry rz
    limits (-20.0 10.0)
           (0.0 20.0)
  end
  begin
     id 18 
     name lhumerus
     direction 1 -4.48964e-011 1.60116e-018   
     length 4.91377   
     axis -180 -30 -90   XYZ
    dof rx ry rz
    limits (-60.0 90.0)
           (-90.0 90.0)
           (-90.0 90.0)
  end
  begin
     id 19
     name lradius
     direction 1 -4.48989e-011 -8.93847e-027   
     length 3.00291   
     axis -180 -30 -90   XYZ
    dof rx
    limits (-10.0 170.0)
  end
  begin
     id 20
     name lwrist
     direction 1 -4.48932e-011 -7.31504e-027   
     length 1.50145   
     axis 5.74121e-015 90 90   XYZ
    dof ry
    limits (-180.0 0.0)
 end
  begin
     id 21 
     name lhand
     direction 1 -4.48971e-011 -1.46301e-026   
     length 0.450922   
     axis 9.33524e-015 90 90   XYZ
    dof rx rz
    limits (-90.0 90.0)
           (-45.0 45.0)
  end
  begin
     id 22 
     name lfingers
     direction 1 -4.49039e-011 -2.92602e-026   
     length 0.363545   
     axis 1.86705e-014 90 90   XYZ
    dof rx
    limits (0.0 90.0)
  end
  begin
     id 23
     name lthumb
     direction 0.707107 -6.34941e-011 0.707107   
     length 0.52198   
     axis -90 45 2.85299e-015   XYZ
    dof rx rz
    limits (-45.0 45.0)
           (-45.0 45.0)
  end
  begin
     id 24 
     name rclavicle
     direction -0.825079 0.56158 -0.0622297   
     length 3.39909  
     axis 0 0 0   XYZ 
    dof ry rz
    limits (-10.0 20.0)
           (-20.0 0.0)
  end
  begin
     id 25 
     name rhumerus
     direction -1 -4.48965e-011 1.61691e-027  
     length 4.86725   
     axis -180 30 90   XYZ
    dof rx ry rz
    limits (-90.0 60.0)
           (-90.0 90.0)
           (-90.0 90.0)
  end
  begin
     id 26 
     name rradius
     direction -1 -4.48964e-011 -2.25776e-027   
     length 3.17144   
     axis -180 30 90   XYZ
    dof rx
    limits (-10.0 170.0)
  end
  begin
     id 27 
     name rwrist
     direction -1 -4.48961e-011 -7.31504e-027   
     length 1.58572   
     axis 5.74121e-015 -90 -90   XYZ
    dof ry
    limits (-180.0 0.0)
  end
  begin
     id 28
     name rhand
     direction -1 -4.49013e-011 -1.46301e-026   
     length 0.419368   
     axis 9.33524e-015 -90 -90   XYZ
    dof rx rz
    limits (-90.0 90.0)
           (-45.0 45.0)
  end
  begin
     id 29
     name rfingers
     direction -1 -4.489e-011 -2.92602e-026   
     length 0.338105   
     axis 1.86705e-014 -90 -90   XYZ
    dof rx
    limits (0.0 90.0)
  end
  begin
     id 30
     name rthumb
     direction -0.707107 -6.35022e-011 0.707107   
     length 0.485453   
     axis -90 -45 -2.85299e-015   XYZ
    dof rx rz
    limits (-45.0 45.0)
           (-45.0 45.0)
  end
:hierarchy
  begin
    root lhipjoint rhipjoint lowerback
    lhipjoint lfemur
    lfemur ltibia
    ltibia lfoot
    lfoot ltoes
    rhipjoint rfemur
    rfemur rtibia
    rtibia rfoot
    rfoot rtoes
    lowerback upperback
    upperback thorax
    thorax lowerneck lclavicle rclavicle
    lowerneck upperneck
    upperneck head
    lclavicle lhumerus
    lhumerus lradius
    lradius lwrist
    lwrist lhand lthumb
    lhand lfingers
    rclavicle rhumerus
    rhumerus rradius
    rradius rwrist
    rwrist rhand rthumb
    rhand rfingers
  end

#!OML:ASF H:\Swim 2\Project 1\Capture day 1\Session 1\male.ASF
:FULLY-SPECIFIED
:DEGREES
1140
root 7.48561 9.78267 11.3986 95.4011 -0.481311 4.58731
lowerback -6.6324 2.81425 -1.22274
upperback -1.21155 3.88835 -0.566623
thorax 2.42029 1.94724 0.434666
lowerneck -29.3914 -8.80377 2.41617
upperneck 50.3741 -13.0957 -5.81731
head 32.2319 -3.13889 -8.97861
rclavicle 1.74931e-014 1.28185e-014
rhumerus 82.297 -30.4791 -16.7666
rradius 30.5693
rwrist -11.9192
rhand -28.9422 1.83398
rfingers 7.12502
rthumb -2.29594 -28.1334
lclavicle 1.74931e-014 1.28185e-014
lhumerus 102.131 16.5445 44.2603
lradius 28.6508
lwrist 19.7646
lhand -36.6252 -10.5671
lfingers 7.12502
lthumb -9.71302 19.189
rfemur -32.4942 -12.6199 -15.1863
rtibia 67.4729
rfoot 4.07857 -13.9854
rtoes 34.7596
lfemur -32.4728 1.34625 11.8336
ltibia 54.6291
lfoot -12.3386 35.2578
ltoes 31.4315
1141
root 7.49289 9.78459 11.4157 96.109 -0.590399 4.58181
lowerback -7.29131 2.83938 -1.23568
upperback -1.40361 3.93897 -0.653855
thorax 2.59351 1.97384 0.387512
lowerneck -29.2299 -8.80624 2.52731
upperneck 50.5265 -13.1919 -5.82082
head 32.4282 -3.10513 -9.06516
rclavicle -6.52014e-014 9.53235e-015
rhumerus 84.2814 -30.5737 -19.247
rradius 28.2012
rwrist -5.78224
rhand -28.4368 2.4323
rfingers 7.12502
rthumb -1.8078 -27.5398
lclavicle -6.52014e-014 9.53235e-015
lhumerus 103.291 16.0456 45.8329
lradius 25.0903
lwrist 13.1189
lhand -36.527 -11.1878
lfingers 7.12502
lthumb -9.61834 18.5727
rfemur -30.8366 -11.1577 -15.0021
rtibia 61.4307
rfoot 5.19059 -16.558
rtoes 36.4923
lfemur -30.8645 -0.227055 11.8428
ltibia 48.2441
lfoot -11.278 36.3749
ltoes 30.3698
1142
root 7.5024 9.7873 11.4286 96.8216 -0.722042 4.52812
lowerback -7.95089 2.90371 -1.3705
upperback -1.56869 4.05133 -0.679253
thorax 2.78063 2.02992 0.479204
lowerneck -29.1189 -8.85379 2.6317
upperneck 50.6597 -13.3239 -5.8866
head 32.5814 -3.09031 -9.2004
rclavicle 3.65764e-014 -1.42116e-014
rhumerus 86.2252 -30.665 -21.8453
rradius 26.2279
rwrist 0.496108
rhand -28.1235 2.8735
rfingers 7.12502
rthumb -1.50523 -27.1009
lclavicle 3.65764e-014 -1.42116e-014
lhumerus 104.623 15.2346 48.4215
lradius 21.8048
lwrist 5.55772
lhand -36.6864 -11.785
lfingers 7.12502
lthumb -9.77206 17.9683
rfemur -29.1708 -9.34716 -14.9602
rtibia 55.2802
rfoot 6.34596 -19.3314
rtoes 38.1956
lfemur -29.3401 -2.16709 11.9655
ltibia 42.1444
lfoot -9.93409 37.3554
ltoes 29.024
1143
root 7.51296 9.79064 11.4379 97.4788 -0.866322 4.36413
lowerback -8.54458 3.00622 -1.6056
upperback -1.68987 4.22281 -0.645382
thorax 2.96256 2.11412 0.693072
lowerneck -29.0585 -8.92758 2.73132
upperneck 50.7698 -13.4694 -6.00091
head 32.6909 -3.08825 -9.36848
rclavicle -4.6118e-014 2.20527e-014
rhumerus 88.0105 -30.7601 -24.3121
rradius 24.6875
rwrist 6.48408
rhand -27.922 3.11734
rfingers 7.12502
rthumb -1.31054 -26.8584
lclavicle -4.6118e-014 2.20527e-014
lhumerus 106.133 14.0279 52.228
lradius 18.8251
lwrist -2.90956
lhand -37.0311 -12.3699
lfingers 7.12502
lthumb -10.1047 17.3675
rfemur -27.5046 -7.07671 -15.0756
rtibia 49.0976
rfoot 7.41337 -22.2497
rtoes 39.6653
lfemur -27.8647 -4.41675 12.1877
ltibia 36.4827
lfoot -8.53392 38.2357
ltoes 27.6144
1144
root 7.52381 9.79434 11.4444 98.0671 -1.00953 4.08185
lowerback -9.04394 3.14602 -1.9146
upperback -1.77948 4.45051 -0.564877
thorax 3.11181 2.22551 0.999787
lowerneck -29.0293 -9.01694 2.83174
upperneck 50.8635 -13.6271 -6.14134
head 32.7631 -3.09584 -9.55401
rclavicle -3.18055e-015 -9.97651e-015
rhumerus 89.4375 -30.8819 -26.3242
rradius 23.5898
rwrist 11.6802
rhand -27.7233 3.2362
rfingers 7.12502
rthumb -1.11872 -26.7406
lclavicle -3.18055e-015 -9.97651e-015
lhumerus 107.504 12.4574 56.9614
lradius 16.5371
lwrist -11.7903
lhand -37.4825 -12.7568
lfingers 7.12502
lthumb -10.5401 16.9589
rfemur -25.8694 -4.34243 -15.347
rtibia 42.9775
rfoot 8.20853 -25.2318
rtoes 40.7451
lfemur -26.5003 -6.8803 12.4781
ltibia 31.4295
lfoot -7.52436 39.0043
ltoes 26.6727
1145
root 7.5343 9.79806 11.4479 98.5886 -1.13478 3.71174
lowerback -9.44948 3.30075 -2.24029
upperback -1.84065 4.69938 -0.456511
thorax 3.23053 2.34703 1.34424
lowerneck -29.0178 -9.09911 2.92927
upperneck 50.9326 -13.7726 -6.2724
head 32.7873 -3.10928 -9.71944
rclavicle -8.26944e-014 8.84592e-015
rhumerus 90.4447 -31.0522 -27.7459
rradius 22.8749
rwrist 15.7757
rhand -27.4893 3.37537
rfingers 7.12502
rthumb -0.892653 -26.6025
lclavicle -8.26944e-014 8.84592e-015
lhumerus 108.656 10.6512 62.2547
lradius 14.8443
lwrist -20.5096
lhand -37.9568 -13.0856
lfingers 7.12502
lthumb -10.9976 16.6063
rfemur -24.3024 -1.24132 -15.7496
rtibia 37.0271
rfoot 8.57735 -28.1752
rtoes 41.2703
lfemur -25.3501 -9.40795 12.7865
ltibia 27.1419
lfoot -7.1287 39.6592
ltoes 26.5465
1146
root 7.54419 9.80168 11.4481 99.0693 -1.24117 3.30629
lowerback -9.78632 3.44501 -2.54338
upperback -1.88293 4.93205 -0.343563
thorax 3.32889 2.46034 1.67708
lowerneck -29.0087 -9.15407 3.00142
upperneck 50.9683 -13.8914 -6.32875
head 32.7695 -3.12749 -9.80744
rclavicle 6.67916e-014 1.3418e-015
rhumerus 91.0016 -31.2911 -28.5273
rradius 22.4768
rwrist 18.6838
rhand -27.2248 3.6382
rfingers 7.12502
rthumb -0.63723 -26.3406
lclavicle 6.67916e-014 1.3418e-015
lhumerus 109.49 8.88913 67.4606
lradius 13.663
lwrist -28.2495
lhand -38.4206 -13.4462
lfingers 7.12502
lthumb -11.4449 16.2214
rfemur -22.8611 2.04937 -16.2435
rtibia 31.3722
rfoot 8.44218 -31.0223
rtoes 41.1594
lfemur -24.5412 -11.8042 13.0429
ltibia 23.7517
lfoot -7.64559 40.1156
ltoes 27.4249
1147
root 7.55313 9.80523 11.4451 99.5205 -1.31975 2.93902
lowerback -10.0615 3.55002 -2.78213
upperback -1.90953 5.10503 -0.240574
thorax 3.41541 2.54395 1.95475
lowerneck -29.0026 -9.16835 3.03078
upperneck 50.964 -13.9719 -6.26952
head 32.7271 -3.14734 -9.78462
rclavicle 4.77083e-014 5.2181e-015
rhumerus 91.321 -31.5641 -28.9674
rradius 22.2189
rwrist 20.7765
rhand -26.9709 4.111
rfingers 7.12502
rthumb -0.391984 -25.8684
lclavicle 4.77083e-014 5.2181e-015
lhumerus 110.01 7.37016 72.1445
lradius 12.8798
lwrist -34.5123
lhand -38.7951 -14.0125
lfingers 7.12502
lthumb -11.8061 15.6347
rfemur -21.5853 5.29504 -16.7515
rtibia 26.1526
rfoot 7.76717 -33.7556
rtoes 40.435
lfemur -24.164 -13.8806 13.1929
ltibia 21.3244
lfoot -9.05473 40.2217
ltoes 29.2472
1148
root 7.56061 9.80907 11.4395 99.9319 -1.37318 2.66681
lowerback -10.2621 3.60053 -2.95396
upperback -1.92612 5.19615 -0.152435
thorax 3.48081 2.5871 2.16604
lowerneck -28.979 -9.14469 3.00321
upperneck 50.929 -14.0208 -6.07524
head 32.6819 -3.16882 -9.63995
rclavicle 1.74931e-014 -2.68359e-015
rhumerus 91.503 -31.841 -29.2495
rradius 22.0067
rwrist 22.4558
rhand -26.7256 4.74235
rfingers 7.12502
rthumb -0.155019 -25.2373
lclavicle 1.74931e-014 -2.68359e-015
lhumerus 110.269 6.17613 76.1345
lradius 12.3841
lwrist -39.1802
lhand -39.039 -14.9167
lfingers 7.12502
lthumb -12.0413 14.7169
rfemur -20.5087 8.26261 -17.1858
rtibia 21.5253
rfoot 6.54001 -36.3857
rtoes 39.2683
lfemur -24.2276 -15.5239 13.186
ltibia 19.8265
lfoot -10.9047 39.892
ltoes 31.3892
1149
root 7.56656 9.81257 11.4303 100.343 -1.40209 2.497
lowerback -10.4454 3.58415 -3.03617
upperback -1.93183 5.18789 -0.0910531
thorax 3.56344 2.58047 2.28772
lowerneck -28.9497 -9.06477 2.93352
upperneck 50.8538 -14.0033 -5.7672
head 32.6192 -3.1826 -9.38001
rclavicle 2.8625e-014 -7.95139e-016
rhumerus 91.6941 -32.1066 -29.5808
rradius 21.7666
rwrist 24.0613
rhand -26.4891 5.41121
rfingers 7.12502
rthumb 0.0733532 -24.5685
lclavicle 2.8625e-014 -7.95139e-016
lhumerus 110.423 5.36855 79.4091
lradius 12.019
lwrist -42.4291
lhand -39.1288 -16.1821
lfingers 7.12502
lthumb -12.1278 13.4464
rfemur -19.7478 10.7252 -17.4646
rtibia 17.6626
rfoot 4.87502 -38.8221
rtoes 37.7991
lfemur -24.6953 -16.586 12.9922
ltibia 19.1149
lfoot -12.3367 39.1127
ltoes 33.257
